<svg width="23" height="22" viewBox="0 0 23 22" fill="none" xmlns="http://www.w3.org/2000/svg">
<path fill-rule="evenodd" clip-rule="evenodd" d="M7.15394 0.235857C8.27806 0.184107 8.63648 0.172607 11.5 0.172607C14.3635 0.172607 14.7219 0.185066 15.8451 0.235857C16.9682 0.286649 17.7349 0.465857 18.4057 0.725566C19.1082 0.991024 19.7455 1.40598 20.2726 1.94265C20.8092 2.46877 21.2232 3.10511 21.4877 3.80852C21.7484 4.47936 21.9266 5.24602 21.9784 6.36727C22.0301 7.49332 22.0416 7.85173 22.0416 10.7143C22.0416 13.5778 22.0292 13.9362 21.9784 15.0603C21.9276 16.1816 21.7484 16.9482 21.4877 17.6191C21.2232 18.3226 20.8085 18.96 20.2726 19.4869C19.7455 20.0235 19.1082 20.4375 18.4057 20.702C17.7349 20.9627 16.9682 21.1409 15.847 21.1927C14.7219 21.2444 14.3635 21.2559 11.5 21.2559C8.63648 21.2559 8.27806 21.2435 7.15394 21.1927C6.03269 21.1419 5.26602 20.9627 4.59519 20.702C3.8917 20.4375 3.25431 20.0228 2.7274 19.4869C2.19109 18.9604 1.77607 18.3233 1.51127 17.62C1.25156 16.9492 1.07331 16.1825 1.02156 15.0613C0.969813 13.9352 0.958313 13.5768 0.958313 10.7143C0.958313 7.85077 0.970771 7.49236 1.02156 6.36919C1.07235 5.24602 1.25156 4.47936 1.51127 3.80852C1.77646 3.10519 2.1918 2.46812 2.72835 1.94169C3.25452 1.4055 3.89127 0.990491 4.59423 0.725566C5.26506 0.465857 6.03173 0.287607 7.15298 0.235857H7.15394ZM15.7598 2.13336C14.6481 2.08257 14.3146 2.07202 11.5 2.07202C8.68535 2.07202 8.35185 2.08257 7.24019 2.13336C6.2119 2.18032 5.65415 2.35186 5.28231 2.49657C4.79069 2.68823 4.43898 2.91536 4.07002 3.28432C3.72027 3.62457 3.45111 4.03879 3.28227 4.49661C3.13756 4.86844 2.96602 5.42619 2.91906 6.45448C2.86827 7.56615 2.85773 7.89965 2.85773 10.7143C2.85773 13.5289 2.86827 13.8624 2.91906 14.9741C2.96602 16.0024 3.13756 16.5601 3.28227 16.9319C3.45094 17.3891 3.72023 17.804 4.07002 18.1442C4.41023 18.494 4.82519 18.7633 5.28231 18.932C5.65415 19.0767 6.2119 19.2482 7.24019 19.2952C8.35185 19.346 8.6844 19.3565 11.5 19.3565C14.3156 19.3565 14.6481 19.346 15.7598 19.2952C16.7881 19.2482 17.3458 19.0767 17.7176 18.932C18.2093 18.7403 18.561 18.5132 18.9299 18.1442C19.2797 17.804 19.549 17.3891 19.7177 16.9319C19.8624 16.5601 20.0339 16.0024 20.0809 14.9741C20.1317 13.8624 20.1422 13.5289 20.1422 10.7143C20.1422 7.89965 20.1317 7.56615 20.0809 6.45448C20.0339 5.42619 19.8624 4.86844 19.7177 4.49661C19.526 4.00498 19.2989 3.65327 18.9299 3.28432C18.5897 2.93459 18.1754 2.66543 17.7176 2.49657C17.3458 2.35186 16.7881 2.18032 15.7598 2.13336ZM10.1535 13.964C10.9055 14.277 11.7428 14.3193 12.5225 14.0835C13.3021 13.8478 13.9757 13.3487 14.4283 12.6714C14.8808 11.9942 15.0842 11.1809 15.0037 10.3703C14.9232 9.55981 14.5638 8.80237 13.9869 8.2274C13.6191 7.85986 13.1744 7.57843 12.6848 7.40337C12.1952 7.22832 11.6729 7.16399 11.1555 7.21503C10.638 7.26607 10.1383 7.43119 9.69238 7.69852C9.24642 7.96585 8.86528 8.32874 8.5764 8.76105C8.28751 9.19336 8.09808 9.68434 8.02172 10.1987C7.94537 10.713 7.984 11.2378 8.13483 11.7354C8.28566 12.233 8.54494 12.6909 8.894 13.0763C9.24307 13.4617 9.67323 13.7648 10.1535 13.964ZM7.66856 6.88286C8.17171 6.37971 8.76904 5.98059 9.42643 5.70829C10.0838 5.43599 10.7884 5.29583 11.5 5.29583C12.2115 5.29583 12.9161 5.43598 13.5735 5.70829C14.2309 5.98059 14.8282 6.37971 15.3314 6.88286C15.8345 7.38601 16.2337 7.98333 16.506 8.64073C16.7783 9.29812 16.9184 10.0027 16.9184 10.7143C16.9184 11.4258 16.7783 12.1304 16.506 12.7878C16.2337 13.4452 15.8345 14.0425 15.3314 14.5457C14.3152 15.5618 12.937 16.1327 11.5 16.1327C10.0629 16.1327 8.68472 15.5618 7.66856 14.5457C6.65241 13.5295 6.08154 12.1513 6.08154 10.7143C6.08154 9.27721 6.65241 7.89901 7.66856 6.88286ZM18.1201 6.10277C18.2448 5.98516 18.3446 5.84372 18.4137 5.68683C18.4827 5.52995 18.5196 5.3608 18.5221 5.18942C18.5246 5.01803 18.4927 4.84788 18.4282 4.68905C18.3638 4.53022 18.2681 4.38593 18.1469 4.26473C18.0257 4.14353 17.8815 4.04788 17.7226 3.98344C17.5638 3.919 17.3936 3.88708 17.2223 3.88958C17.0509 3.89208 16.8817 3.92894 16.7248 3.99798C16.568 4.06702 16.4265 4.16684 16.3089 4.29152C16.0802 4.53401 15.9549 4.8561 15.9598 5.18942C15.9646 5.52273 16.0992 5.84103 16.3349 6.07675C16.5706 6.31246 16.8889 6.44703 17.2223 6.45189C17.5556 6.45675 17.8777 6.33152 18.1201 6.10277Z" fill="black"/>
</svg>
